<?xml version="1.0" encoding="utf-8"?>
<!-- Generator: Adobe Illustrator 23.0.2, SVG Export Plug-In . SVG Version: 6.00 Build 0)  -->
<svg version="1.1" id="Layer_1" xmlns="http://www.w3.org/2000/svg" xmlns:xlink="http://www.w3.org/1999/xlink" x="0px" y="0px"
	 viewBox="0 0 151.36 244.8" style="enable-background:new 0 0 151.36 244.8;" xml:space="preserve">
<style type="text/css">
	.st0{fill:#FCE2E9;}
	.st1{fill:#4B2E88;}
	.st2{fill:#EE1D48;}
	.st3{fill:#ED1C24;}
	.st4{opacity:0.7;}
	.st5{fill:#68141B;}
	.st6{fill:#252469;}
</style>
<g>
	<ellipse class="st0" cx="74.57" cy="191.84" rx="36.38" ry="7.17"/>
	<g>
		<polygon class="st1" points="7.81,101.2 7.81,3.86 143.63,3.86 143.63,101.2 147.49,101.2 147.49,0 3.95,0 3.95,101.2 		"/>
	</g>
	<g>
		<path class="st2" d="M20.55,117.34v6.55c0,4.07-2.39,6.64-6.15,6.64c-3.8,0-6.25-2.6-6.25-6.64v-3.4H0.34v-3.15H20.55z
			 M10.99,123.86c0,2.24,1.26,3.46,3.37,3.46c2.08,0,3.37-1.22,3.37-3.46v-3.37h-6.74V123.86z"/>
		<path class="st2" d="M20.88,158.94c0,5.36-4.16,9.16-10.41,9.16C4.19,168.1,0,164.27,0,158.94c0-5.3,4.23-9.09,10.44-9.09
			C16.75,149.85,20.88,153.65,20.88,158.94z M17.97,158.97c0-3.58-2.85-5.88-7.5-5.88c-4.68,0-7.56,2.3-7.56,5.88
			c0,3.52,2.88,5.91,7.56,5.91C15.1,164.88,17.97,162.49,17.97,158.97z"/>
		<path class="st2" d="M8.82,204.22l5.11-7.8l-1.33-2.99l-7.16,3.19l-1.28-2.88l18.47-8.22l2.66,5.99c1.66,3.72,0.52,7.04-2.92,8.57
			c-2.46,1.1-4.82,0.7-6.59-0.96l-5.52,8.32L8.82,204.22z M15.17,192.28l1.37,3.08c0.9,2.02,2.55,2.65,4.48,1.79
			c1.9-0.85,2.57-2.52,1.67-4.53l-1.37-3.08L15.17,192.28z"/>
		<path class="st2" d="M40.71,215.4l-4.86-3.48l1.66-2.32l12.3,8.81l-1.66,2.32l-4.88-3.49l-10.11,14.12l-2.57-1.84L40.71,215.4z"/>
		<path class="st2" d="M89.81,224.11l-6.77,20.54l-1.26,0.01l-5.31-13.81l-4.98,13.93l-1.29,0.01l-7.22-20.37l3.43-0.04l4.53,13.36
			l4.8-13.71l1.26-0.01l5.15,13.54l4.22-13.4L89.81,224.11z"/>
		<path class="st2" d="M104.16,216.98l2.47-1.96l5.01,6.3l6.83-5.43l-5.01-6.3l2.47-1.96l12.58,15.82l-2.47,1.96l-5.79-7.29
			l-6.83,5.43l5.79,7.29l-2.47,1.96L104.16,216.98z"/>
		<path class="st2" d="M125.76,192.46l1.25-2.89l18.54,8.04l-1.25,2.89L125.76,192.46z"/>
		<path class="st2" d="M130.9,156.44h20.45v1.26l-13.63,10.62h13.38v3.15h-20.45v-1.29l13.6-10.59H130.9V156.44z"/>
		<path class="st2" d="M130.9,134.87v-11.94h2.85v8.79h5.27v-6.64h2.76v6.64h6.49v-9.12h2.85v12.28H130.9z"/>
	</g>
	<g>
		<path id="XMLID_14_" class="st3" d="M64.49,49.18c-1.82-1.89-1.87-4.9,0.16-6.57c0.96-0.79,2.35-1.3,4.38-1.18
			c6.97,0.42,12.97,8.62,11.56,15.85c-1.41,7.23-12.44,15.63-10.42,19.85c2.01,4.22,4.03,3.13,8.52,1.15
			c4.49-1.98,11.2,1.25,6.82,4.01s-13.5,2.27-13.54,4.19s2.66,6.33,11.01,3.6c8.34-2.73,12.97-5.63,12.97-5.64
			c-0.24,0.15,1.17,7.89,1.22,8.91c0.16,3.69-0.12,7.44-1.25,10.99c-2.27,7.12-7.46,11.78-15.26,13.06
			c-12.87,2.11-27.27-4.69-29.43-17.73c-2.23-13.47,9.55-21.02,15.16-31.76C69.69,61.61,69.64,54.51,64.49,49.18z"/>
		<path class="st1" d="M110.86,93.66c-0.12-1.56-0.35-3.11-0.65-4.63c-0.3-1.52-0.68-3.02-1.12-4.5c-0.88-2.95-2.01-5.8-3.3-8.55
			c-1.29-2.75-2.75-5.41-4.34-7.98c-0.79-1.28-1.61-2.55-2.46-3.79c-0.85-1.24-1.73-2.47-2.63-3.67c-0.91-1.2-1.84-2.38-2.8-3.53
			c-0.48-0.58-0.97-1.15-1.46-1.71c-0.49-0.56-1-1.12-1.52-1.66c0.88,1.21,1.72,2.45,2.55,3.69c0.41,0.62,0.81,1.25,1.21,1.88
			c0.4,0.63,0.79,1.26,1.18,1.9c0.77,1.27,1.53,2.56,2.25,3.85c0.72,1.3,1.43,2.6,2.09,3.93c1.34,2.64,2.56,5.34,3.62,8.08
			c0.53,1.37,1.02,2.75,1.46,4.15c0.44,1.39,0.84,2.8,1.17,4.21c0.67,2.82,1.1,5.69,1.19,8.53c0.02,0.7,0.01,1.4-0.02,2.1
			c-0.03,0.7-0.09,1.39-0.18,2.09c-0.18,1.38-0.46,2.76-0.85,4.1c-0.39,1.34-0.87,2.65-1.44,3.92c-0.29,0.63-0.6,1.26-0.93,1.87
			c-0.33,0.61-0.69,1.21-1.06,1.8c-0.75,1.17-1.58,2.29-2.49,3.35c-0.91,1.05-1.89,2.04-2.93,2.96c-2.09,1.83-4.43,3.37-6.94,4.58
			c-2.51,1.21-5.18,2.08-7.92,2.63c-1.37,0.27-2.76,0.47-4.17,0.59c-0.7,0.06-1.4,0.1-2.11,0.12c-0.35,0.01-0.71,0.02-1.06,0.02
			l-0.53,0l-0.52-0.01c-1.39-0.03-2.77-0.15-4.13-0.38c-1.36-0.22-2.7-0.54-4-0.96c-1.3-0.42-2.57-0.94-3.79-1.56
			c-0.61-0.31-1.21-0.65-1.79-1c-0.58-0.36-1.15-0.74-1.71-1.14c-1.11-0.81-2.15-1.71-3.12-2.68c-0.97-0.97-1.87-2.03-2.68-3.15
			c-3.27-4.47-5.23-9.95-5.54-15.54l-0.01-0.13l0-0.03c-0.51-3.64-0.44-7.4,0.05-11.13c0.49-3.73,1.39-7.44,2.57-11.07
			c0.44-1.34,0.92-2.68,1.42-4l0,0c-0.49,1.05-6.36,10.63-7.12,14.56c-0.19,0.98-0.35,1.97-0.48,2.97c-0.13,1-0.23,2-0.29,3.01
			c-0.06,1.01-0.09,2.02-0.08,3.04c0.01,0.97,0.06,1.95,0.15,2.92c0.03,3.17,0.55,6.34,1.51,9.37c0.97,3.04,2.38,5.95,4.21,8.59
			c1.83,2.64,4.07,5.01,6.66,6.97c2.58,1.96,5.5,3.48,8.57,4.5c1.54,0.51,3.11,0.9,4.7,1.16c0.97,0.16,1.94,0.28,2.91,0.35
			c0.13,1.63,0.24,3.25,0.34,4.88c0.13,2,0.23,3.99,0.33,5.99c0.19,3.99,0.33,7.99,0.45,11.98c0.05,2,0.11,3.99,0.14,5.99l0.06,2.99
			l0.04,2.99c0.05,3.99,0.06,7.99,0.06,11.98c-0.02,7.99-0.14-21.82-0.42-13.83c-0.14,3.99-0.31,7.98-0.53,11.98l-0.18,2.99
			c-0.07,1-0.13,2-0.2,2.99c-0.13,1.84-0.27,3.69-0.45,5.53c-1.78,0.02-3.57,0.05-5.35,0.1c-1.38,0.04-2.76,0.09-4.14,0.16
			c-1.38,0.07-2.76,0.16-4.14,0.26c-2.76,0.22-5.51,0.5-8.25,0.93c-1.37,0.22-2.73,0.47-4.08,0.79c-0.68,0.16-1.35,0.34-2.01,0.54
			c-0.33,0.1-0.66,0.21-0.99,0.33c-0.16,0.06-0.33,0.12-0.49,0.19c-0.08,0.03-0.16,0.07-0.24,0.11c-0.08,0.04-0.16,0.07-0.25,0.12
			l0.18,0.31c0.07-0.02,0.16-0.03,0.24-0.05c0.08-0.02,0.17-0.03,0.25-0.04c0.17-0.03,0.34-0.05,0.51-0.07
			c0.34-0.04,0.68-0.08,1.02-0.1c0.68-0.06,1.37-0.09,2.05-0.13c0.68-0.02,1.37-0.05,2.05-0.07l1.02-0.02
			c0.34-0.01,0.68-0.01,1.02-0.01c2.73-0.02,5.45,0,8.17,0.03l8.17,0.1c2.73,0.03,5.45,0.06,8.19,0.07
			c2.73,0.01,5.46,0.01,8.19-0.01l8.17-0.05c2.72-0.02,5.45-0.02,8.17,0.02c0.68,0,1.36,0.03,2.05,0.04
			c0.68,0.01,1.36,0.05,2.05,0.08c0.68,0.04,1.37,0.08,2.05,0.14c0.34,0.03,0.68,0.07,1.02,0.11c0.17,0.02,0.34,0.05,0.51,0.07
			c0.17,0.03,0.34,0.06,0.5,0.09l0.18-0.31c-0.17-0.09-0.32-0.16-0.49-0.23c-0.16-0.07-0.32-0.13-0.49-0.2
			c-0.33-0.12-0.66-0.23-0.99-0.34c-0.66-0.21-1.34-0.39-2.01-0.55c-1.35-0.33-2.71-0.59-4.08-0.82c-2.74-0.44-5.49-0.75-8.24-0.98
			c-0.69-0.06-1.38-0.11-2.07-0.16c-0.69-0.05-1.38-0.09-2.07-0.13c-1.38-0.08-2.76-0.14-4.14-0.19c-1.78-0.06-3.57-0.11-5.35-0.13
			c-0.16-1.84-0.29-3.69-0.41-5.53c-0.07-1-0.12-2-0.18-3l-0.16-3c-0.2-3.99-0.34-7.99-0.45-11.98c-0.02-0.8-0.04-1.2-0.06-1.32
			l0.07-2.81c0.05-2,0.12-3.99,0.18-5.99c0.14-3.99,0.31-7.98,0.53-11.98c0.11-2,0.23-3.99,0.37-5.99c0.11-1.63,0.23-3.26,0.37-4.89
			c0.28-0.02,0.57-0.04,0.85-0.07c1.58-0.14,3.15-0.37,4.7-0.69c3.11-0.64,6.16-1.68,9.02-3.1c1.43-0.71,2.81-1.53,4.13-2.43
			c1.32-0.9,2.57-1.9,3.75-2.98c1.18-1.08,2.28-2.25,3.29-3.49c1.01-1.24,1.93-2.55,2.75-3.92c0.41-0.69,0.79-1.38,1.15-2.1
			c0.36-0.71,0.69-1.44,0.99-2.18c0.61-1.47,1.11-2.99,1.49-4.54c0.38-1.55,0.64-3.13,0.77-4.71c0.07-0.79,0.1-1.59,0.11-2.39
			C110.95,95.25,110.92,94.45,110.86,93.66z"/>
		<g class="st4">
			<path class="st5" d="M64.47,45.04c-0.43-0.96-0.23-1.8,0.73-2.23c0.97-0.44,1.73-0.03,2.16,0.93l1.46,3.25
				c0.43,0.96,0.24,1.8-0.73,2.24c-0.96,0.43-1.72,0.02-2.15-0.95L64.47,45.04z M66.64,48.02c0.25,0.57,0.65,0.8,1.15,0.57
				c0.51-0.23,0.59-0.68,0.34-1.24l-1.49-3.33c-0.26-0.58-0.65-0.81-1.16-0.58c-0.5,0.23-0.59,0.68-0.33,1.25L66.64,48.02z"/>
			<path class="st5" d="M67.71,50.91c-0.17,0.19-0.42,0.37-0.72,0.48l-0.15-0.52c0.61-0.21,0.72-0.6,0.75-1.05l0.44-0.13l1.69,5.69
				l-0.63,0.19L67.71,50.91z"/>
			<path class="st5" d="M69.22,50.26c-0.01-0.91,0.43-1.5,1.33-1.51c0.92-0.01,1.37,0.56,1.39,1.47l0.05,3.06
				c0.01,0.91-0.43,1.51-1.34,1.52c-0.91,0.01-1.37-0.57-1.38-1.48L69.22,50.26z M69.92,53.35c0.01,0.53,0.24,0.85,0.72,0.85
				c0.48-0.01,0.7-0.33,0.69-0.87l-0.05-3.14c-0.01-0.54-0.23-0.86-0.72-0.85c-0.47,0.01-0.7,0.33-0.69,0.88L69.92,53.35z"/>
			<path class="st5" d="M68.36,42.65c-0.16,0.23-0.39,0.45-0.69,0.61l-0.24-0.53c0.62-0.31,0.68-0.74,0.65-1.21l0.45-0.2l2.59,5.78
				l-0.64,0.29L68.36,42.65z"/>
			<path class="st5" d="M71.38,43.23c-0.14,0.24-0.35,0.48-0.64,0.66l-0.28-0.51c0.59-0.35,0.62-0.79,0.55-1.26l0.43-0.23l3.04,5.56
				l-0.61,0.33L71.38,43.23z"/>
			<path class="st5" d="M64.88,70.18c0.47-1.16,1.35-1.68,2.51-1.21c1.17,0.47,1.45,1.45,0.98,2.62l-1.58,3.92
				c-0.47,1.16-1.35,1.69-2.52,1.22c-1.16-0.47-1.43-1.46-0.96-2.62L64.88,70.18z M64.11,74.49c-0.28,0.68-0.15,1.22,0.46,1.46
				c0.62,0.25,1.07-0.05,1.34-0.73l1.62-4.02c0.28-0.7,0.16-1.22-0.45-1.47c-0.61-0.25-1.07,0.05-1.35,0.74L64.11,74.49z"/>
			<path class="st5" d="M69.29,72.82c-0.32,0.06-0.71,0.04-1.09-0.09l0.26-0.64c0.77,0.28,1.19-0.03,1.57-0.45l0.54,0.22l-2.82,6.99
				l-0.77-0.31L69.29,72.82z"/>
			<path class="st5" d="M60.35,101.26c-0.15,0.29-0.4,0.59-0.73,0.82l-0.36-0.59c0.68-0.45,0.69-0.97,0.59-1.52l0.5-0.3l3.89,6.45
				l-0.71,0.43L60.35,101.26z"/>
			<path class="st5" d="M62.09,101.99c-0.65-1.07-0.53-2.09,0.54-2.73c1.08-0.65,2.03-0.28,2.68,0.79l2.19,3.62
				c0.65,1.07,0.54,2.1-0.54,2.75c-1.07,0.65-2.03,0.27-2.68-0.81L62.09,101.99z M65.08,105.2c0.38,0.63,0.88,0.85,1.44,0.51
				c0.57-0.35,0.6-0.88,0.22-1.52l-2.24-3.71c-0.39-0.64-0.88-0.87-1.45-0.52c-0.56,0.34-0.6,0.88-0.21,1.53L65.08,105.2z"/>
			<path class="st5" d="M51.3,92.59c0.06-1.25,0.73-2.03,1.98-1.96c1.26,0.07,1.84,0.9,1.78,2.16l-0.22,4.22
				c-0.06,1.25-0.73,2.04-1.99,1.97c-1.25-0.06-1.83-0.92-1.76-2.17L51.3,92.59z M51.98,96.92c-0.04,0.74,0.25,1.2,0.91,1.23
				c0.67,0.03,0.99-0.39,1.03-1.13l0.22-4.33c0.04-0.75-0.24-1.21-0.91-1.24c-0.66-0.03-0.99,0.39-1.03,1.14L51.98,96.92z"/>
			<path class="st5" d="M59.57,86.92c0.06-1.25,0.73-2.03,1.98-1.96c1.26,0.07,1.84,0.9,1.78,2.16l-0.22,4.22
				c-0.06,1.25-0.73,2.04-1.99,1.97c-1.25-0.06-1.83-0.92-1.76-2.17L59.57,86.92z M60.25,91.25c-0.04,0.74,0.25,1.2,0.91,1.23
				c0.67,0.03,0.99-0.39,1.03-1.13l0.22-4.33c0.04-0.75-0.24-1.21-0.91-1.24c-0.66-0.03-0.99,0.39-1.03,1.14L60.25,91.25z"/>
			<path class="st5" d="M65,109.68c-0.74-1.01-0.73-2.03,0.28-2.77c1.02-0.75,2-0.47,2.74,0.54l2.51,3.4
				c0.74,1.01,0.73,2.04-0.29,2.79c-1.01,0.74-1.99,0.45-2.74-0.55L65,109.68z M68.28,112.59c0.44,0.59,0.96,0.76,1.48,0.37
				c0.54-0.4,0.52-0.94,0.08-1.53l-2.57-3.49c-0.45-0.6-0.95-0.78-1.49-0.38c-0.53,0.39-0.52,0.94-0.07,1.54L68.28,112.59z"/>
			<path class="st5" d="M73.88,80.6c-0.2,0.09-0.46,0.14-0.72,0.12l0.06-0.46c0.55,0.05,0.77-0.22,0.95-0.55l0.39,0.05l-0.68,5
				l-0.55-0.08L73.88,80.6z"/>
			<path class="st5" d="M69.27,78.24c-0.15,0.11-0.36,0.19-0.58,0.22l-0.02-0.39c0.46-0.04,0.61-0.3,0.7-0.61l0.33-0.02l0.24,4.29
				l-0.47,0.03L69.27,78.24z"/>
			<path class="st5" d="M74.44,80.97c-0.16-0.83,0.15-1.43,0.98-1.59c0.83-0.16,1.34,0.3,1.5,1.12l0.52,2.79
				c0.16,0.83-0.15,1.44-0.99,1.6c-0.83,0.16-1.34-0.31-1.49-1.13L74.44,80.97z M75.57,83.68c0.09,0.49,0.35,0.74,0.79,0.66
				c0.44-0.08,0.59-0.41,0.49-0.9l-0.54-2.85c-0.09-0.49-0.35-0.75-0.79-0.67c-0.43,0.08-0.59,0.41-0.49,0.91L75.57,83.68z"/>
			<path class="st5" d="M57.32,110.2c-0.78-0.77-0.9-1.66-0.13-2.44c0.78-0.79,1.67-0.68,2.45,0.1l2.64,2.61
				c0.78,0.77,0.91,1.67,0.13,2.46c-0.77,0.78-1.67,0.66-2.45-0.11L57.32,110.2z M60.55,112.29c0.46,0.46,0.93,0.53,1.34,0.12
				c0.41-0.42,0.32-0.88-0.14-1.34l-2.7-2.68c-0.47-0.46-0.93-0.55-1.35-0.13c-0.41,0.41-0.32,0.88,0.14,1.34L60.55,112.29z"/>
			<path class="st5" d="M77.9,79.85c-0.16,0.15-0.39,0.28-0.65,0.34l-0.09-0.45c0.53-0.12,0.66-0.45,0.73-0.82l0.38-0.07l0.93,4.96
				l-0.55,0.1L77.9,79.85z"/>
			<path class="st5" d="M79.02,79.73c-0.16-0.83,0.15-1.43,0.98-1.59c0.83-0.16,1.34,0.3,1.5,1.12l0.52,2.79
				c0.16,0.83-0.15,1.44-0.99,1.6c-0.83,0.16-1.34-0.31-1.49-1.13L79.02,79.73z M80.15,82.45c0.09,0.49,0.35,0.74,0.79,0.66
				c0.44-0.08,0.59-0.41,0.49-0.9l-0.54-2.85c-0.09-0.49-0.35-0.75-0.79-0.67c-0.43,0.08-0.59,0.41-0.49,0.91L80.15,82.45z"/>
			<path class="st5" d="M82.48,78.61c-0.16,0.15-0.39,0.28-0.65,0.34l-0.09-0.45c0.53-0.12,0.66-0.45,0.73-0.82l0.38-0.07l0.93,4.96
				l-0.55,0.1L82.48,78.61z"/>
			<path class="st5" d="M74.3,48.92c-0.26,0.16-0.6,0.29-0.97,0.32l-0.01-0.64c0.76-0.04,1.02-0.46,1.19-0.95l0.54-0.01l0.11,7.03
				l-0.77,0.01L74.3,48.92z"/>
			<path class="st5" d="M77.7,48.87c-0.26,0.16-0.6,0.29-0.97,0.32l-0.01-0.64c0.76-0.04,1.02-0.46,1.19-0.95l0.54-0.01l0.11,7.03
				l-0.77,0.01L77.7,48.87z"/>
			<path class="st5" d="M78.89,56.14c-0.25,0.12-0.56,0.19-0.9,0.17l0.07-0.57c0.68,0.05,0.95-0.29,1.17-0.7l0.48,0.06l-0.73,6.24
				l-0.69-0.08L78.89,56.14z"/>
			<path class="st5" d="M70.93,105.59c-0.28,0.18-0.65,0.32-1.06,0.35l-0.01-0.7c0.83-0.05,1.11-0.5,1.3-1.04l0.59-0.01l0.12,7.69
				l-0.85,0.01L70.93,105.59z"/>
			<path class="st5" d="M73.84,102.84c-0.34,0.21-0.78,0.38-1.26,0.41l-0.01-0.83c0.99-0.05,1.32-0.59,1.54-1.23l0.7-0.01l0.14,9.11
				l-1,0.02L73.84,102.84z"/>
			<path class="st5" d="M76.31,103.35c-0.02-1.39,0.65-2.3,2.05-2.32c1.41-0.02,2.11,0.87,2.13,2.26l0.07,4.7
				c0.02,1.39-0.65,2.31-2.06,2.34c-1.39,0.02-2.1-0.88-2.12-2.27L76.31,103.35z M77.38,108.1c0.01,0.82,0.37,1.31,1.1,1.3
				c0.74-0.01,1.07-0.51,1.06-1.33l-0.07-4.82c-0.01-0.83-0.36-1.32-1.1-1.31c-0.73,0.01-1.07,0.51-1.06,1.34L77.38,108.1z"/>
			<path class="st5" d="M80.17,93.48c-0.26,0.17-0.6,0.29-0.98,0.32l-0.01-0.65c0.77-0.04,1.02-0.46,1.2-0.96l0.55-0.01l0.11,7.08
				l-0.78,0.01L80.17,93.48z"/>
			<path class="st5" d="M82.5,92.95c-0.26,0.17-0.6,0.29-0.98,0.32l-0.01-0.65c0.77-0.04,1.02-0.46,1.2-0.96l0.55-0.01l0.11,7.08
				l-0.78,0.01L82.5,92.95z"/>
			<path class="st5" d="M84.42,93.34c-0.02-1.08,0.51-1.79,1.59-1.8c1.09-0.02,1.64,0.67,1.66,1.75l0.06,3.65
				c0.02,1.08-0.51,1.8-1.6,1.81c-1.08,0.02-1.63-0.68-1.65-1.77L84.42,93.34z M85.25,97.03c0.01,0.64,0.29,1.02,0.85,1.01
				c0.58-0.01,0.83-0.4,0.82-1.03l-0.06-3.74c-0.01-0.65-0.28-1.03-0.86-1.02c-0.57,0.01-0.83,0.4-0.82,1.04L85.25,97.03z"/>
			<path class="st5" d="M81.14,102.37c-0.26,0.17-0.6,0.29-0.98,0.32l-0.01-0.65c0.77-0.04,1.02-0.46,1.2-0.96l0.55-0.01l0.11,7.08
				l-0.78,0.01L81.14,102.37z"/>
			<path class="st5" d="M93.22,98.07c-0.26,0.17-0.6,0.29-0.98,0.32l-0.01-0.65c0.77-0.04,1.02-0.46,1.2-0.96l0.55-0.01l0.11,7.08
				l-0.78,0.01L93.22,98.07z"/>
			<path class="st5" d="M94.87,90.55c-0.26,0.17-0.6,0.29-0.98,0.32l-0.01-0.65c0.77-0.04,1.02-0.46,1.2-0.96l0.55-0.01l0.11,7.08
				l-0.78,0.01L94.87,90.55z"/>
			<path class="st5" d="M87.61,100.23c-0.26,0.17-0.6,0.29-0.98,0.32l-0.01-0.65c0.77-0.04,1.02-0.46,1.2-0.96l0.55-0.01l0.11,7.08
				l-0.78,0.01L87.61,100.23z"/>
			<path class="st5" d="M82.73,101.64c-0.02-1.08,0.51-1.79,1.59-1.8c1.09-0.02,1.64,0.67,1.66,1.75l0.06,3.65
				c0.02,1.08-0.51,1.8-1.6,1.81c-1.08,0.02-1.63-0.68-1.65-1.77L82.73,101.64z M83.56,105.33c0.01,0.64,0.29,1.02,0.85,1.01
				c0.58-0.01,0.83-0.4,0.82-1.03l-0.06-3.74c-0.01-0.65-0.28-1.03-0.86-1.02c-0.57,0.01-0.83,0.4-0.82,1.04L83.56,105.33z"/>
			<path class="st5" d="M75.21,111.99c-0.26,0.17-0.6,0.29-0.98,0.32l-0.01-0.65c0.77-0.04,1.02-0.46,1.2-0.96l0.55-0.01l0.11,7.08
				l-0.78,0.01L75.21,111.99z"/>
			<path class="st5" d="M77.55,111.45c-0.26,0.17-0.6,0.29-0.98,0.32l-0.01-0.65c0.77-0.04,1.02-0.46,1.2-0.96l0.55-0.01l0.11,7.08
				l-0.78,0.01L77.55,111.45z"/>
			<path class="st5" d="M79.46,111.85c-0.02-1.08,0.51-1.79,1.59-1.8c1.09-0.02,1.64,0.67,1.66,1.75l0.06,3.65
				c0.02,1.08-0.51,1.8-1.6,1.81c-1.08,0.02-1.63-0.68-1.65-1.77L79.46,111.85z M80.3,115.54c0.01,0.64,0.29,1.02,0.85,1.01
				c0.58-0.01,0.83-0.4,0.82-1.03l-0.06-3.74c-0.01-0.65-0.28-1.03-0.86-1.02c-0.57,0.01-0.83,0.4-0.82,1.04L80.3,115.54z"/>
			<path class="st5" d="M83.69,109.48c-0.26,0.17-0.6,0.29-0.98,0.32l-0.01-0.65c0.77-0.04,1.02-0.46,1.2-0.96l0.55-0.01l0.11,7.08
				l-0.78,0.01L83.69,109.48z"/>
			<path class="st5" d="M85.61,109.88c-0.02-1.08,0.51-1.79,1.59-1.8c1.09-0.02,1.64,0.67,1.66,1.75l0.06,3.65
				c0.02,1.08-0.51,1.8-1.6,1.81c-1.08,0.02-1.63-0.68-1.65-1.77L85.61,109.88z M86.45,113.57c0.01,0.64,0.29,1.02,0.85,1.01
				c0.58-0.01,0.83-0.4,0.82-1.03l-0.06-3.74c-0.01-0.65-0.28-1.03-0.86-1.02c-0.57,0.01-0.83,0.4-0.82,1.04L86.45,113.57z"/>
			<path class="st5" d="M89.26,106.63c-0.02-1.08,0.51-1.79,1.59-1.8c1.09-0.02,1.64,0.67,1.66,1.75l0.06,3.65
				c0.02,1.08-0.51,1.8-1.6,1.81c-1.08,0.02-1.63-0.68-1.65-1.77L89.26,106.63z M90.1,110.32c0.01,0.64,0.29,1.02,0.85,1.01
				c0.58-0.01,0.83-0.4,0.82-1.03l-0.06-3.74c-0.01-0.65-0.28-1.03-0.86-1.02c-0.57,0.01-0.83,0.4-0.82,1.04L90.1,110.32z"/>
			<path class="st5" d="M88.94,91.5c-0.26,0.17-0.6,0.29-0.98,0.32l-0.01-0.65c0.77-0.04,1.02-0.46,1.2-0.96l0.55-0.01l0.11,7.08
				l-0.78,0.01L88.94,91.5z"/>
			<path class="st5" d="M90.65,91.16c-0.02-1.08,0.51-1.79,1.59-1.8c1.09-0.02,1.64,0.67,1.66,1.75l0.06,3.65
				c0.02,1.08-0.51,1.8-1.6,1.81c-1.08,0.02-1.63-0.68-1.65-1.77L90.65,91.16z M91.49,94.85c0.01,0.64,0.29,1.02,0.85,1.01
				c0.58-0.01,0.83-0.4,0.82-1.03l-0.06-3.74c-0.01-0.65-0.28-1.03-0.86-1.02c-0.57,0.01-0.83,0.4-0.82,1.04L91.49,94.85z"/>
			<path class="st5" d="M89.04,99.26c-0.02-1.08,0.51-1.79,1.59-1.8c1.09-0.02,1.64,0.67,1.66,1.75l0.06,3.65
				c0.02,1.08-0.51,1.8-1.6,1.81c-1.08,0.02-1.63-0.68-1.65-1.77L89.04,99.26z M89.88,102.95c0.01,0.64,0.29,1.02,0.85,1.01
				c0.58-0.01,0.83-0.4,0.82-1.03l-0.06-3.74c-0.01-0.65-0.28-1.03-0.86-1.02c-0.57,0.01-0.83,0.4-0.82,1.04L89.88,102.95z"/>
			<path class="st5" d="M73.14,109.99c-0.26,0.16-0.61,0.29-0.98,0.31l0-0.65c0.77-0.03,1.03-0.45,1.21-0.94l0.55,0l0.02,7.08
				l-0.78,0L73.14,109.99z"/>
			<path class="st5" d="M66.08,116.11c-1.04-0.31-1.55-1.03-1.24-2.06c0.32-1.05,1.14-1.36,2.18-1.04l3.49,1.06
				c1.04,0.31,1.56,1.03,1.24,2.08c-0.31,1.04-1.15,1.34-2.18,1.03L66.08,116.11z M69.85,116.44c0.61,0.18,1.06,0.03,1.22-0.51
				c0.17-0.55-0.12-0.91-0.73-1.1l-3.58-1.08c-0.62-0.19-1.06-0.05-1.23,0.5c-0.16,0.54,0.12,0.91,0.74,1.1L69.85,116.44z"/>
			<path class="st5" d="M65.86,82.03c-0.29,0.13-0.66,0.2-1.05,0.16l0.1-0.66c0.79,0.08,1.12-0.3,1.38-0.78l0.56,0.08l-1.05,7.24
				L65,87.95L65.86,82.03z"/>
			<path class="st5" d="M68.11,82.9c-0.25,0.11-0.57,0.17-0.9,0.14l0.08-0.57c0.68,0.07,0.97-0.26,1.19-0.67l0.48,0.07l-0.91,6.25
				l-0.69-0.1L68.11,82.9z"/>
			<path class="st5" d="M55.95,93.92c-0.2,0.19-0.48,0.36-0.8,0.44l-0.12-0.56c0.67-0.17,0.82-0.58,0.89-1.04l0.48-0.1l1.28,6.18
				l-0.68,0.14L55.95,93.92z"/>
			<path class="st5" d="M58.22,93.96c-0.2,0.19-0.48,0.36-0.8,0.44l-0.12-0.56c0.67-0.17,0.82-0.58,0.89-1.04l0.48-0.1l1.28,6.18
				l-0.68,0.14L58.22,93.96z"/>
			<path class="st5" d="M69.11,83.97c0.14-0.95,0.7-1.5,1.66-1.36c0.96,0.14,1.35,0.82,1.21,1.78l-0.47,3.22
				c-0.14,0.95-0.7,1.51-1.67,1.37c-0.95-0.14-1.34-0.83-1.2-1.79L69.11,83.97z M69.32,87.34c-0.08,0.56,0.11,0.94,0.61,1.01
				c0.51,0.07,0.79-0.23,0.87-0.79l0.48-3.3c0.08-0.57-0.1-0.94-0.61-1.02c-0.5-0.07-0.79,0.23-0.87,0.8L69.32,87.34z"/>
			<path class="st5" d="M60.17,95.41c-0.38-0.89-0.18-1.65,0.71-2.02c0.9-0.38,1.58,0.01,1.95,0.9l1.27,3
				c0.38,0.89,0.18,1.66-0.72,2.04c-0.89,0.38-1.57-0.02-1.95-0.91L60.17,95.41z M62.09,98.18c0.22,0.52,0.58,0.74,1.04,0.55
				c0.47-0.2,0.56-0.61,0.34-1.13l-1.3-3.07c-0.22-0.53-0.57-0.76-1.05-0.56c-0.47,0.2-0.56,0.61-0.33,1.14L62.09,98.18z"/>
			<path class="st5" d="M70.13,62.74c-0.36,0.08-0.79,0.08-1.21-0.04l0.25-0.72c0.87,0.26,1.32-0.1,1.72-0.58l0.61,0.21l-2.75,7.89
				l-0.87-0.3L70.13,62.74z"/>
			<path class="st5" d="M74.89,64.05c-0.36,0-0.78-0.1-1.17-0.32l0.41-0.65c0.79,0.45,1.31,0.21,1.8-0.17l0.55,0.34l-4.46,7.07
				l-0.78-0.49L74.89,64.05z"/>
			<path class="st5" d="M60.88,77.82c-0.3,0-0.64-0.08-0.95-0.26l0.33-0.52c0.64,0.37,1.06,0.17,1.46-0.14l0.44,0.28l-3.64,5.72
				l-0.63-0.4L60.88,77.82z"/>
			<path class="st5" d="M65.37,111.67l-3.92-7.03l-0.56,0.31c0.1,0.62,0.06,1.19-0.71,1.67l0.37,0.67c0.37-0.24,0.66-0.56,0.84-0.88
				l2.94,5.27L65.37,111.67z"/>
			<path class="st5" d="M61.72,79.08c0.31-1.09,1.04-1.63,2.13-1.32c1.1,0.31,1.43,1.16,1.13,2.25l-1.04,3.66
				c-0.31,1.09-1.05,1.64-2.14,1.33c-1.09-0.31-1.42-1.17-1.11-2.26L61.72,79.08z M61.44,83.01c-0.18,0.64-0.02,1.1,0.55,1.26
				c0.58,0.16,0.95-0.15,1.13-0.79l1.06-3.75c0.18-0.65,0.03-1.11-0.55-1.27c-0.57-0.16-0.95,0.15-1.14,0.8L61.44,83.01z"/>
			<path class="st5" d="M64.79,90.81c-0.25,0.26-0.61,0.5-1.04,0.63l-0.19-0.74c0.87-0.26,1.05-0.81,1.12-1.43l0.63-0.16l2.05,8.1
				l-0.89,0.23L64.79,90.81z"/>
			<path class="st5" d="M67.5,91.06c-0.11-1.27,0.44-2.15,1.72-2.26c1.28-0.12,1.99,0.65,2.1,1.92l0.38,4.29
				c0.11,1.27-0.44,2.16-1.73,2.28c-1.27,0.11-1.98-0.66-2.09-1.93L67.5,91.06z M68.81,95.33c0.07,0.75,0.43,1.17,1.09,1.11
				c0.68-0.06,0.95-0.54,0.88-1.29l-0.39-4.4c-0.07-0.76-0.42-1.19-1.1-1.12c-0.67,0.06-0.95,0.54-0.88,1.3L68.81,95.33z"/>
			<path class="st5" d="M67.23,99.07c-0.2,0.19-0.48,0.36-0.8,0.44l-0.12-0.56c0.67-0.17,0.82-0.58,0.89-1.04l0.48-0.1l1.28,6.18
				l-0.68,0.14L67.23,99.07z"/>
			<path class="st5" d="M68.35,99.18c-0.19-0.94,0.15-1.65,1.09-1.85c0.95-0.2,1.55,0.32,1.74,1.26l0.66,3.19
				c0.19,0.94-0.15,1.66-1.1,1.86c-0.94,0.19-1.54-0.33-1.73-1.27L68.35,99.18z M69.7,102.28c0.11,0.56,0.42,0.84,0.92,0.74
				c0.5-0.1,0.66-0.49,0.55-1.04l-0.67-3.27c-0.12-0.57-0.42-0.85-0.92-0.75c-0.49,0.1-0.66,0.49-0.55,1.05L69.7,102.28z"/>
			<path class="st5" d="M72.68,93.74c-0.29,0.22-0.68,0.4-1.12,0.46l-0.07-0.76c0.9-0.12,1.17-0.63,1.33-1.23l0.64-0.06l0.75,8.33
				l-0.92,0.08L72.68,93.74z"/>
			<path class="st5" d="M74.97,94.04c-0.11-1.27,0.44-2.15,1.72-2.26c1.28-0.12,1.99,0.65,2.1,1.92l0.38,4.29
				c0.11,1.27-0.44,2.16-1.73,2.28c-1.27,0.11-1.98-0.66-2.09-1.93L74.97,94.04z M76.28,98.31c0.07,0.75,0.43,1.17,1.09,1.11
				c0.68-0.06,0.95-0.54,0.88-1.29l-0.39-4.4c-0.07-0.76-0.42-1.19-1.1-1.12c-0.67,0.06-0.95,0.54-0.88,1.3L76.28,98.31z"/>
			<path class="st5" d="M55.68,84.78c0.35-1.23,1.18-1.85,2.41-1.5c1.24,0.35,1.62,1.32,1.28,2.55l-1.18,4.15
				c-0.35,1.23-1.19,1.86-2.43,1.51c-1.23-0.35-1.61-1.33-1.26-2.56L55.68,84.78z M55.37,89.23c-0.21,0.72-0.02,1.25,0.62,1.43
				c0.65,0.19,1.08-0.17,1.28-0.89l1.21-4.25c0.21-0.74,0.03-1.26-0.62-1.44c-0.64-0.18-1.08,0.17-1.29,0.9L55.37,89.23z"/>
			<path class="st5" d="M52.96,100.74c-0.24,0.27-0.59,0.53-1,0.68l-0.22-0.73c0.86-0.3,1.01-0.86,1.05-1.48l0.62-0.19l2.43,8
				l-0.88,0.27L52.96,100.74z"/>
			<path class="st5" d="M54.49,100.85c-0.37-1.22-0.01-2.2,1.22-2.57c1.23-0.38,2.08,0.23,2.45,1.45l1.26,4.12
				c0.37,1.22,0.01,2.21-1.22,2.58c-1.22,0.37-2.07-0.24-2.44-1.47L54.49,100.85z M56.64,104.76c0.22,0.72,0.66,1.06,1.3,0.87
				c0.65-0.2,0.82-0.72,0.6-1.44l-1.29-4.23c-0.22-0.73-0.65-1.07-1.3-0.88c-0.64,0.19-0.82,0.72-0.59,1.45L56.64,104.76z"/>
			<path class="st5" d="M70.43,56.74c-0.21,0.13-0.48,0.23-0.78,0.25l-0.01-0.52c0.61-0.03,0.82-0.37,0.96-0.77l0.44-0.01l0.09,5.66
				l-0.62,0.01L70.43,56.74z"/>
			<path class="st5" d="M73.16,56.69c-0.21,0.13-0.48,0.23-0.78,0.25l-0.01-0.52c0.61-0.03,0.82-0.37,0.96-0.77l0.44-0.01l0.09,5.66
				l-0.62,0.01L73.16,56.69z"/>
			<path class="st5" d="M74.69,57.01c-0.01-0.86,0.41-1.43,1.27-1.44c0.87-0.01,1.31,0.54,1.32,1.4l0.04,2.92
				c0.01,0.86-0.41,1.44-1.28,1.45c-0.86,0.01-1.3-0.55-1.32-1.41L74.69,57.01z M75.36,59.96c0.01,0.51,0.23,0.81,0.68,0.81
				c0.46-0.01,0.67-0.32,0.66-0.83l-0.05-2.99c-0.01-0.52-0.22-0.82-0.68-0.81c-0.45,0.01-0.67,0.32-0.66,0.83L75.36,59.96z"/>
		</g>
	</g>
	<path class="st2" d="M56.11,75.45c0,0,11.47-11.86,8.11-16.83s-4.84-4.3-4.93-0.34S61.34,68.22,56.11,75.45z"/>
	<path class="st2" d="M85.27,70.32c0,0-0.39-7.09,2.85-6.48c3.24,0.6,4.98,0.59,2.16,3.72S85.27,70.32,85.27,70.32z"/>
	<path class="st2" d="M50.89,50.1c0,0,4.59-2.2,1.97,3.64c-2.62,5.84-4.26,5.29-4.26,5.29S46.95,53.74,50.89,50.1z"/>
</g>
</svg>
