<?xml version="1.0" encoding="UTF-8"?><svg id="Layer_1" xmlns="http://www.w3.org/2000/svg" viewBox="0 0 151.35 244.79"><ellipse cx="74.57" cy="191.84" rx="36.38" ry="7.17" fill="#fce2e9"/><polygon points="7.81 101.2 7.81 3.86 143.63 3.86 143.63 101.2 147.49 101.2 147.49 0 3.95 0 3.95 101.2 7.81 101.2" fill="#ffffff"/><path d="M20.55,117.34v6.55c0,4.07-2.39,6.64-6.15,6.64s-6.25-2.6-6.25-6.64v-3.4H.34v-3.15h20.21ZM10.99,123.86c0,2.24,1.26,3.46,3.37,3.46s3.37-1.22,3.37-3.46v-3.37h-6.74v3.37Z" fill="#ee1d48"/><path d="M20.88,158.94c0,5.36-4.16,9.16-10.41,9.16s-10.47-3.83-10.47-9.16,4.23-9.09,10.44-9.09,10.44,3.8,10.44,9.09ZM17.97,158.97c0-3.58-2.85-5.88-7.5-5.88s-7.56,2.3-7.56,5.88,2.88,5.91,7.56,5.91,7.5-2.39,7.5-5.91Z" fill="#ee1d48"/><path d="M8.82,204.22l5.11-7.8-1.33-2.99-7.16,3.19-1.28-2.88,18.47-8.22,2.66,5.99c1.66,3.72.52,7.04-2.92,8.57-2.46,1.1-4.82.7-6.59-.96l-5.52,8.32-1.44-3.22ZM15.17,192.28l1.37,3.08c.9,2.02,2.55,2.65,4.48,1.79,1.9-.85,2.57-2.52,1.67-4.53l-1.37-3.08-6.15,2.74Z" fill="#ee1d48"/><path d="M40.71,215.4l-4.86-3.48,1.66-2.32,12.3,8.81-1.66,2.32-4.88-3.49-10.11,14.12-2.57-1.84,10.12-14.12Z" fill="#ee1d48"/><path d="M89.81,224.11l-6.77,20.54h-1.26s-5.31-13.8-5.31-13.8l-4.98,13.93h-1.29s-7.22-20.36-7.22-20.36l3.43-.04,4.53,13.36,4.8-13.71h1.26s5.15,13.53,5.15,13.53l4.22-13.4,3.44-.05Z" fill="#ee1d48"/><path d="M104.16,216.98l2.47-1.96,5.01,6.3,6.83-5.43-5.01-6.3,2.47-1.96,12.58,15.82-2.47,1.96-5.79-7.29-6.83,5.43,5.79,7.29-2.47,1.96-12.58-15.82Z" fill="#ee1d48"/><path d="M125.76,192.46l1.25-2.89,18.54,8.04-1.25,2.89-18.54-8.04Z" fill="#ee1d48"/><path d="M130.9,156.44h20.45v1.26l-13.63,10.62h13.38v3.15h-20.45v-1.29l13.6-10.59h-13.35v-3.15Z" fill="#ee1d48"/><path d="M130.9,134.87v-11.94h2.85v8.79h5.27v-6.64h2.76v6.64h6.49v-9.12h2.85v12.28h-20.22Z" fill="#ee1d48"/><path d="M64.49,49.18c-1.82-1.89-1.87-4.9.16-6.57.96-.79,2.35-1.3,4.38-1.18,6.97.42,12.97,8.62,11.56,15.85-1.41,7.23-12.44,15.63-10.42,19.85,2.01,4.22,4.03,3.13,8.52,1.15,4.49-1.98,11.2,1.25,6.82,4.01s-13.5,2.27-13.54,4.19,2.66,6.33,11.01,3.6c8.34-2.73,12.97-5.63,12.97-5.64-.24.15,1.17,7.89,1.22,8.91.16,3.69-.12,7.44-1.25,10.99-2.27,7.12-7.46,11.78-15.26,13.06-12.87,2.11-27.27-4.69-29.43-17.73-2.23-13.47,9.55-21.02,15.16-31.76,3.3-6.3,3.25-13.4-1.9-18.73Z" fill="#ed1c24"/><path d="M110.86,93.66c-.12-1.56-.35-3.11-.65-4.63s-.68-3.02-1.12-4.5c-.88-2.95-2.01-5.8-3.3-8.55s-2.75-5.41-4.34-7.98c-.79-1.28-1.61-2.55-2.46-3.79-.85-1.24-1.73-2.47-2.63-3.67-.91-1.2-1.84-2.38-2.8-3.53-.48-.58-.97-1.15-1.46-1.71-.49-.56-1-1.12-1.52-1.66.88,1.21,1.72,2.45,2.55,3.69.41.62.81,1.25,1.21,1.88s.79,1.26,1.18,1.9c.77,1.27,1.53,2.56,2.25,3.85.72,1.3,1.43,2.6,2.09,3.93,1.34,2.64,2.56,5.34,3.62,8.08.53,1.37,1.02,2.75,1.46,4.15.44,1.39.84,2.8,1.17,4.21.67,2.82,1.1,5.69,1.19,8.53.02.7.01,1.4-.02,2.1s-.09,1.39-.18,2.09c-.18,1.38-.46,2.76-.85,4.1s-.87,2.65-1.44,3.92c-.29.63-.6,1.26-.93,1.87s-.69,1.21-1.06,1.8c-.75,1.17-1.58,2.29-2.49,3.35-.91,1.05-1.89,2.04-2.93,2.96-2.09,1.83-4.43,3.37-6.94,4.58s-5.18,2.08-7.92,2.63c-1.37.27-2.76.47-4.17.59-.7.06-1.4.1-2.11.12-.35.01-.71.02-1.06.02h-1.05c-1.39-.04-2.77-.16-4.13-.39-1.36-.22-2.7-.54-4-.96s-2.57-.94-3.79-1.56c-.61-.31-1.21-.65-1.79-1-.58-.36-1.15-.74-1.71-1.14-1.11-.81-2.15-1.71-3.12-2.68-.97-.97-1.87-2.03-2.68-3.15-3.27-4.47-5.23-9.95-5.54-15.54v-.13s0-.03,0-.03c-.51-3.64-.44-7.4.05-11.13.49-3.73,1.39-7.44,2.57-11.07.44-1.34.92-2.68,1.42-4h0c-.49,1.05-6.36,10.63-7.12,14.56-.19.98-.35,1.97-.48,2.97s-.23,2-.29,3.01-.09,2.02-.08,3.04c0,.97.06,1.95.15,2.92.03,3.17.55,6.34,1.51,9.37.97,3.04,2.38,5.95,4.21,8.59,1.83,2.64,4.07,5.01,6.66,6.97,2.58,1.96,5.5,3.48,8.57,4.5,1.54.51,3.11.9,4.7,1.16.97.16,1.94.28,2.91.35.13,1.63.24,3.25.34,4.88.13,2,.23,3.99.33,5.99.19,3.99.33,7.99.45,11.98.05,2,.11,3.99.14,5.99l.06,2.99.04,2.99c.05,3.99.06,7.99.06,11.98-.02,7.99-.14-21.82-.42-13.83-.14,3.99-.31,7.98-.53,11.98l-.18,2.99c-.07,1-.13,2-.2,2.99-.13,1.84-.27,3.69-.45,5.53-1.78.02-3.57.05-5.35.1-1.38.04-2.76.09-4.14.16s-2.76.16-4.14.26c-2.76.22-5.51.5-8.25.93-1.37.22-2.73.47-4.08.79-.68.16-1.35.34-2.01.54-.33.1-.66.21-.99.33-.16.06-.33.12-.49.19-.08.03-.16.07-.24.11s-.16.07-.25.12l.18.31c.07-.02.16-.03.24-.05s.17-.03.25-.04c.17-.03.34-.05.51-.07.34-.04.68-.08,1.02-.1.68-.06,1.37-.09,2.05-.13.68-.02,1.37-.05,2.05-.07l1.02-.02c.34,0,.68,0,1.02,0,2.73-.02,5.45,0,8.17.03l8.17.1c2.73.03,5.45.06,8.19.07,2.73,0,5.46,0,8.19,0l8.17-.05c2.72-.02,5.45-.02,8.17.02.68,0,1.36.03,2.05.04.68,0,1.36.05,2.05.08.68.04,1.37.08,2.05.14.34.03.68.07,1.02.11.17.02.34.05.51.07.17.03.34.06.5.09l.18-.31c-.17-.09-.32-.16-.49-.23-.16-.07-.32-.13-.49-.2-.33-.12-.66-.23-.99-.34-.66-.21-1.34-.39-2.01-.55-1.35-.33-2.71-.59-4.08-.82-2.74-.44-5.49-.75-8.24-.98-.69-.06-1.38-.11-2.07-.16s-1.38-.09-2.07-.13c-1.38-.08-2.76-.14-4.14-.19-1.78-.06-3.57-.11-5.35-.13-.16-1.84-.29-3.69-.41-5.53-.07-1-.12-2-.18-3l-.16-3c-.2-3.99-.34-7.99-.45-11.98-.02-.8-.04-1.2-.06-1.32l.07-2.81c.05-2,.12-3.99.18-5.99.14-3.99.31-7.98.53-11.98.11-2,.23-3.99.37-5.99.11-1.63.23-3.26.37-4.89.28-.02.57-.04.85-.07,1.58-.14,3.15-.37,4.7-.69,3.11-.64,6.16-1.68,9.02-3.1,1.43-.71,2.81-1.53,4.13-2.43s2.57-1.9,3.75-2.98,2.28-2.25,3.29-3.49,1.93-2.55,2.75-3.92c.41-.69.79-1.38,1.15-2.1.36-.71.69-1.44.99-2.18.61-1.47,1.11-2.99,1.49-4.54s.64-3.13.77-4.71c.07-.79.1-1.59.11-2.39,0-.77-.03-1.57-.09-2.36Z" fill="#ffffff"/><g opacity=".7"><path d="M64.47,45.04c-.43-.96-.23-1.8.73-2.23.97-.44,1.73-.03,2.16.93l1.46,3.25c.43.96.24,1.8-.73,2.24-.96.43-1.72.02-2.15-.95l-1.47-3.24ZM66.64,48.02c.25.57.65.8,1.15.57.51-.23.59-.68.34-1.24l-1.49-3.33c-.26-.58-.65-.81-1.16-.58-.5.23-.59.68-.33,1.25l1.49,3.33Z" fill="#68141b"/><path d="M67.71,50.91c-.17.19-.42.37-.72.48l-.15-.52c.61-.21.72-.6.75-1.05l.44-.13,1.69,5.69-.63.19-1.38-4.66Z" fill="#68141b"/><path d="M69.22,50.26c-.01-.91.43-1.5,1.33-1.51.92,0,1.37.56,1.39,1.47l.05,3.06c.01.91-.43,1.51-1.34,1.52-.91,0-1.37-.57-1.38-1.48l-.05-3.06ZM69.92,53.35c.01.53.24.85.72.85.48,0,.7-.33.69-.87l-.05-3.14c-.01-.54-.23-.86-.72-.85-.47,0-.7.33-.69.88l.05,3.13Z" fill="#68141b"/><path d="M68.36,42.65c-.16.23-.39.45-.69.61l-.24-.53c.62-.31.68-.74.65-1.21l.45-.2,2.59,5.78-.64.29-2.12-4.74Z" fill="#68141b"/><path d="M71.38,43.23c-.14.24-.35.48-.64.66l-.28-.51c.59-.35.62-.79.55-1.26l.43-.23,3.04,5.56-.61.33-2.49-4.55Z" fill="#68141b"/><path d="M64.88,70.18c.47-1.16,1.35-1.68,2.51-1.21,1.17.47,1.45,1.45.98,2.62l-1.58,3.92c-.47,1.16-1.35,1.69-2.52,1.22-1.16-.47-1.43-1.46-.96-2.62l1.57-3.93ZM64.11,74.49c-.28.68-.15,1.22.46,1.46.62.25,1.07-.05,1.34-.73l1.62-4.02c.28-.7.16-1.22-.45-1.47s-1.07.05-1.35.74l-1.62,4.02Z" fill="#68141b"/><path d="M69.29,72.82c-.32.06-.71.04-1.09-.09l.26-.64c.77.28,1.19-.03,1.57-.45l.54.22-2.82,6.99-.77-.31,2.31-5.72Z" fill="#68141b"/><path d="M60.35,101.26c-.15.29-.4.59-.73.82l-.36-.59c.68-.45.69-.97.59-1.52l.5-.3,3.89,6.45-.71.43-3.18-5.29Z" fill="#68141b"/><path d="M62.09,101.99c-.65-1.07-.53-2.09.54-2.73,1.08-.65,2.03-.28,2.68.79l2.19,3.62c.65,1.07.54,2.1-.54,2.75-1.07.65-2.03.27-2.68-.81l-2.19-3.62ZM65.08,105.2c.38.63.88.85,1.44.51.57-.35.6-.88.22-1.52l-2.24-3.71c-.39-.64-.88-.87-1.45-.52-.56.34-.6.88-.21,1.53l2.24,3.71Z" fill="#68141b"/><path d="M51.3,92.59c.06-1.25.73-2.03,1.98-1.96,1.26.07,1.84.9,1.78,2.16l-.22,4.22c-.06,1.25-.73,2.04-1.99,1.97-1.25-.06-1.83-.92-1.76-2.17l.21-4.22ZM51.98,96.92c-.04.74.25,1.2.91,1.23.67.03.99-.39,1.03-1.13l.22-4.33c.04-.75-.24-1.21-.91-1.24-.66-.03-.99.39-1.03,1.14l-.22,4.33Z" fill="#68141b"/><path d="M59.57,86.92c.06-1.25.73-2.03,1.98-1.96,1.26.07,1.84.9,1.78,2.16l-.22,4.22c-.06,1.25-.73,2.04-1.99,1.97-1.25-.06-1.83-.92-1.76-2.17l.21-4.22ZM60.25,91.25c-.04.74.25,1.2.91,1.23.67.03.99-.39,1.03-1.13l.22-4.33c.04-.75-.24-1.21-.91-1.24-.66-.03-.99.39-1.03,1.14l-.22,4.33Z" fill="#68141b"/><path d="M65,109.68c-.74-1.01-.73-2.03.28-2.77,1.02-.75,2-.47,2.74.54l2.51,3.4c.74,1.01.73,2.04-.29,2.79-1.01.74-1.99.45-2.74-.55l-2.5-3.41ZM68.28,112.59c.44.59.96.76,1.48.37.54-.4.52-.94.08-1.53l-2.57-3.49c-.45-.6-.95-.78-1.49-.38-.53.39-.52.94-.07,1.54l2.57,3.49Z" fill="#68141b"/><path d="M73.88,80.6c-.2.09-.46.14-.72.12l.06-.46c.55.05.77-.22.95-.55l.39.05-.68,5-.55-.08.55-4.08Z" fill="#68141b"/><path d="M69.27,78.24c-.15.11-.36.19-.58.22l-.02-.39c.46-.04.61-.3.7-.61l.33-.02.24,4.29-.47.03-.2-3.52Z" fill="#68141b"/><path d="M74.44,80.97c-.16-.83.15-1.43.98-1.59.83-.16,1.34.3,1.5,1.12l.52,2.79c.16.83-.15,1.44-.99,1.6-.83.16-1.34-.31-1.49-1.13l-.52-2.79ZM75.57,83.68c.09.49.35.74.79.66.44-.08.59-.41.49-.9l-.54-2.85c-.09-.49-.35-.75-.79-.67-.43.08-.59.41-.49.91l.54,2.85Z" fill="#68141b"/><path d="M57.32,110.2c-.78-.77-.9-1.66-.13-2.44.78-.79,1.67-.68,2.45.1l2.64,2.61c.78.77.91,1.67.13,2.46-.77.78-1.67.66-2.45-.11l-2.64-2.62ZM60.55,112.29c.46.46.93.53,1.34.12.41-.42.32-.88-.14-1.34l-2.7-2.68c-.47-.46-.93-.55-1.35-.13-.41.41-.32.88.14,1.34l2.71,2.69Z" fill="#68141b"/><path d="M77.9,79.85c-.16.15-.39.28-.65.34l-.09-.45c.53-.12.66-.45.73-.82l.38-.07.93,4.96-.55.1-.75-4.06Z" fill="#68141b"/><path d="M79.02,79.73c-.16-.83.15-1.43.98-1.59.83-.16,1.34.3,1.5,1.12l.52,2.79c.16.83-.15,1.44-.99,1.6-.83.16-1.34-.31-1.49-1.13l-.52-2.79ZM80.15,82.45c.09.49.35.74.79.66.44-.08.59-.41.49-.9l-.54-2.85c-.09-.49-.35-.75-.79-.67-.43.08-.59.41-.49.91l.54,2.85Z" fill="#68141b"/><path d="M82.48,78.61c-.16.15-.39.28-.65.34l-.09-.45c.53-.12.66-.45.73-.82l.38-.07.93,4.96-.55.1-.75-4.06Z" fill="#68141b"/><path d="M74.3,48.92c-.26.16-.6.29-.97.32v-.64c.75-.04,1.01-.46,1.18-.95h.54s.11,7.02.11,7.02h-.77s-.09-5.75-.09-5.75Z" fill="#68141b"/><path d="M77.7,48.87c-.26.16-.6.29-.97.32v-.64c.75-.04,1.01-.46,1.18-.95h.54s.11,7.02.11,7.02h-.77s-.09-5.75-.09-5.75Z" fill="#68141b"/><path d="M78.89,56.14c-.25.12-.56.19-.9.17l.07-.57c.68.05.95-.29,1.17-.7l.48.06-.73,6.24-.69-.08.6-5.12Z" fill="#68141b"/><path d="M70.93,105.59c-.28.18-.65.32-1.06.35v-.7c.82-.05,1.1-.5,1.29-1.04h.59s.12,7.68.12,7.68h-.85s-.09-6.29-.09-6.29Z" fill="#68141b"/><path d="M73.84,102.84c-.34.21-.78.38-1.26.41v-.83c.98-.05,1.31-.59,1.53-1.23h.7s.14,9.1.14,9.1l-1,.02-.11-7.47Z" fill="#68141b"/><path d="M76.31,103.35c-.02-1.39.65-2.3,2.05-2.32,1.41-.02,2.11.87,2.13,2.26l.07,4.7c.02,1.39-.65,2.31-2.06,2.34-1.39.02-2.1-.88-2.12-2.27l-.07-4.71ZM77.38,108.1c.01.82.37,1.31,1.1,1.3.74-.01,1.07-.51,1.06-1.33l-.07-4.82c-.01-.83-.36-1.32-1.1-1.31-.73.01-1.07.51-1.06,1.34l.07,4.82Z" fill="#68141b"/><path d="M80.17,93.48c-.26.17-.6.29-.98.32v-.65c.76-.04,1.01-.46,1.19-.96h.55s.11,7.07.11,7.07h-.78s-.09-5.78-.09-5.78Z" fill="#68141b"/><path d="M82.5,92.95c-.26.17-.6.29-.98.32v-.65c.76-.04,1.01-.46,1.19-.96h.55s.11,7.07.11,7.07h-.78s-.09-5.78-.09-5.78Z" fill="#68141b"/><path d="M84.42,93.34c-.02-1.08.51-1.79,1.59-1.8,1.09-.02,1.64.67,1.66,1.75l.06,3.65c.02,1.08-.51,1.8-1.6,1.81-1.08.02-1.63-.68-1.65-1.77l-.06-3.64ZM85.25,97.03c.01.64.29,1.02.85,1.01.58-.01.83-.4.82-1.03l-.06-3.74c-.01-.65-.28-1.03-.86-1.02-.57.01-.83.4-.82,1.04l.07,3.74Z" fill="#68141b"/><path d="M81.14,102.37c-.26.17-.6.29-.98.32v-.65c.76-.04,1.01-.46,1.19-.96h.55s.11,7.07.11,7.07h-.78s-.09-5.78-.09-5.78Z" fill="#68141b"/><path d="M93.22,98.07c-.26.17-.6.29-.98.32v-.65c.76-.04,1.01-.46,1.19-.96h.55s.11,7.07.11,7.07h-.78s-.09-5.78-.09-5.78Z" fill="#68141b"/><path d="M94.87,90.55c-.26.17-.6.29-.98.32v-.65c.76-.04,1.01-.46,1.19-.96h.55s.11,7.07.11,7.07h-.78s-.09-5.78-.09-5.78Z" fill="#68141b"/><path d="M87.61,100.23c-.26.17-.6.29-.98.32v-.65c.76-.04,1.01-.46,1.19-.96h.55s.11,7.07.11,7.07h-.78s-.09-5.78-.09-5.78Z" fill="#68141b"/><path d="M82.73,101.64c-.02-1.08.51-1.79,1.59-1.8,1.09-.02,1.64.67,1.66,1.75l.06,3.65c.02,1.08-.51,1.8-1.6,1.81-1.08.02-1.63-.68-1.65-1.77l-.06-3.64ZM83.56,105.33c.01.64.29,1.02.85,1.01.58-.01.83-.4.82-1.03l-.06-3.74c-.01-.65-.28-1.03-.86-1.02-.57.01-.83.4-.82,1.04l.07,3.74Z" fill="#68141b"/><path d="M75.21,111.99c-.26.17-.6.29-.98.32v-.65c.76-.04,1.01-.46,1.19-.96h.55s.11,7.07.11,7.07h-.78s-.09-5.78-.09-5.78Z" fill="#68141b"/><path d="M77.55,111.45c-.26.17-.6.29-.98.32v-.65c.76-.04,1.01-.46,1.19-.96h.55s.11,7.07.11,7.07h-.78s-.09-5.78-.09-5.78Z" fill="#68141b"/><path d="M79.46,111.85c-.02-1.08.51-1.79,1.59-1.8,1.09-.02,1.64.67,1.66,1.75l.06,3.65c.02,1.08-.51,1.8-1.6,1.81-1.08.02-1.63-.68-1.65-1.77l-.06-3.64ZM80.3,115.54c.01.64.29,1.02.85,1.01.58-.01.83-.4.82-1.03l-.06-3.74c-.01-.65-.28-1.03-.86-1.02-.57.01-.83.4-.82,1.04l.07,3.74Z" fill="#68141b"/><path d="M83.69,109.48c-.26.17-.6.29-.98.32v-.65c.76-.04,1.01-.46,1.19-.96h.55s.11,7.07.11,7.07h-.78s-.09-5.78-.09-5.78Z" fill="#68141b"/><path d="M85.61,109.88c-.02-1.08.51-1.79,1.59-1.8,1.09-.02,1.64.67,1.66,1.75l.06,3.65c.02,1.08-.51,1.8-1.6,1.81-1.08.02-1.63-.68-1.65-1.77l-.06-3.64ZM86.45,113.57c.01.64.29,1.02.85,1.01.58-.01.83-.4.82-1.03l-.06-3.74c-.01-.65-.28-1.03-.86-1.02-.57.01-.83.4-.82,1.04l.07,3.74Z" fill="#68141b"/><path d="M89.26,106.63c-.02-1.08.51-1.79,1.59-1.8,1.09-.02,1.64.67,1.66,1.75l.06,3.65c.02,1.08-.51,1.8-1.6,1.81-1.08.02-1.63-.68-1.65-1.77l-.06-3.64ZM90.1,110.32c.01.64.29,1.02.85,1.01.58-.01.83-.4.82-1.03l-.06-3.74c-.01-.65-.28-1.03-.86-1.02-.57.01-.83.4-.82,1.04l.07,3.74Z" fill="#68141b"/><path d="M88.94,91.5c-.26.17-.6.29-.98.32v-.65c.76-.04,1.01-.46,1.19-.96h.55s.11,7.07.11,7.07h-.78s-.09-5.78-.09-5.78Z" fill="#68141b"/><path d="M90.65,91.16c-.02-1.08.51-1.79,1.59-1.8,1.09-.02,1.64.67,1.66,1.75l.06,3.65c.02,1.08-.51,1.8-1.6,1.81-1.08.02-1.63-.68-1.65-1.77l-.06-3.64ZM91.49,94.85c.01.64.29,1.02.85,1.01.58-.01.83-.4.82-1.03l-.06-3.74c-.01-.65-.28-1.03-.86-1.02-.57.01-.83.4-.82,1.04l.07,3.74Z" fill="#68141b"/><path d="M89.04,99.26c-.02-1.08.51-1.79,1.59-1.8,1.09-.02,1.64.67,1.66,1.75l.06,3.65c.02,1.08-.51,1.8-1.6,1.81-1.08.02-1.63-.68-1.65-1.77l-.06-3.64ZM89.88,102.95c.01.64.29,1.02.85,1.01.58-.01.83-.4.82-1.03l-.06-3.74c-.01-.65-.28-1.03-.86-1.02-.57.01-.83.4-.82,1.04l.07,3.74Z" fill="#68141b"/><path d="M73.14,109.99c-.26.16-.61.29-.98.31v-.65c.77-.03,1.03-.45,1.21-.94h.55l.02,7.08h-.78l-.02-5.8Z" fill="#68141b"/><path d="M66.08,116.11c-1.04-.31-1.55-1.03-1.24-2.06.32-1.05,1.14-1.36,2.18-1.04l3.49,1.06c1.04.31,1.56,1.03,1.24,2.08-.31,1.04-1.15,1.34-2.18,1.03l-3.49-1.07ZM69.85,116.44c.61.18,1.06.03,1.22-.51.17-.55-.12-.91-.73-1.1l-3.58-1.08c-.62-.19-1.06-.05-1.23.5-.16.54.12.91.74,1.1l3.58,1.09Z" fill="#68141b"/><path d="M65.86,82.03c-.29.13-.66.2-1.05.16l.1-.66c.79.08,1.12-.3,1.38-.78l.56.08-1.05,7.24-.8-.12.86-5.92Z" fill="#68141b"/><path d="M68.11,82.9c-.25.11-.57.17-.9.14l.08-.57c.68.07.97-.26,1.19-.67l.48.07-.91,6.25-.69-.1.75-5.12Z" fill="#68141b"/><path d="M55.95,93.92c-.2.19-.48.36-.8.44l-.12-.56c.67-.17.82-.58.89-1.04l.48-.1,1.28,6.18-.68.14-1.05-5.06Z" fill="#68141b"/><path d="M58.22,93.96c-.2.19-.48.36-.8.44l-.12-.56c.67-.17.82-.58.89-1.04l.48-.1,1.28,6.18-.68.14-1.05-5.06Z" fill="#68141b"/><path d="M69.11,83.97c.14-.95.7-1.5,1.66-1.36.96.14,1.35.82,1.21,1.78l-.47,3.22c-.14.95-.7,1.51-1.67,1.37-.95-.14-1.34-.83-1.2-1.79l.47-3.22ZM69.32,87.34c-.08.56.11.94.61,1.01.51.07.79-.23.87-.79l.48-3.3c.08-.57-.1-.94-.61-1.02-.5-.07-.79.23-.87.8l-.48,3.3Z" fill="#68141b"/><path d="M60.17,95.41c-.38-.89-.18-1.65.71-2.02.9-.38,1.58.01,1.95.9l1.27,3c.38.89.18,1.66-.72,2.04-.89.38-1.57-.02-1.95-.91l-1.26-3.01ZM62.09,98.18c.22.52.58.74,1.04.55.47-.2.56-.61.34-1.13l-1.3-3.07c-.22-.53-.57-.76-1.05-.56-.47.2-.56.61-.33,1.14l1.3,3.07Z" fill="#68141b"/><path d="M70.13,62.74c-.36.08-.79.08-1.21-.04l.25-.72c.87.26,1.32-.1,1.72-.58l.61.21-2.75,7.89-.87-.3,2.25-6.46Z" fill="#68141b"/><path d="M74.89,64.05c-.36,0-.78-.1-1.17-.32l.41-.65c.79.45,1.31.21,1.8-.17l.55.34-4.46,7.07-.78-.49,3.65-5.78Z" fill="#68141b"/><path d="M60.88,77.82c-.3,0-.64-.08-.95-.26l.33-.52c.64.37,1.06.17,1.46-.14l.44.28-3.64,5.72-.63-.4,2.99-4.68Z" fill="#68141b"/><path d="M65.37,111.67l-3.92-7.03-.56.31c.1.62.06,1.19-.71,1.67l.37.67c.37-.24.66-.56.84-.88l2.94,5.27h1.04Z" fill="#68141b"/><path d="M61.72,79.08c.31-1.09,1.04-1.63,2.13-1.32,1.1.31,1.43,1.16,1.13,2.25l-1.04,3.66c-.31,1.09-1.05,1.64-2.14,1.33s-1.42-1.17-1.11-2.26l1.03-3.66ZM61.44,83.01c-.18.64-.02,1.1.55,1.26.58.16.95-.15,1.13-.79l1.06-3.75c.18-.65.03-1.11-.55-1.27-.57-.16-.95.15-1.14.8l-1.05,3.75Z" fill="#68141b"/><path d="M64.79,90.81c-.25.26-.61.5-1.04.63l-.19-.74c.87-.26,1.05-.81,1.12-1.43l.63-.16,2.05,8.1-.89.23-1.68-6.63Z" fill="#68141b"/><path d="M67.5,91.06c-.11-1.27.44-2.15,1.72-2.26,1.28-.12,1.99.65,2.1,1.92l.38,4.29c.11,1.27-.44,2.16-1.73,2.28-1.27.11-1.98-.66-2.09-1.93l-.38-4.3ZM68.81,95.33c.07.75.43,1.17,1.09,1.11.68-.06.95-.54.88-1.29l-.39-4.4c-.07-.76-.42-1.19-1.1-1.12-.67.06-.95.54-.88,1.3l.4,4.4Z" fill="#68141b"/><path d="M67.23,99.07c-.2.19-.48.36-.8.44l-.12-.56c.67-.17.82-.58.89-1.04l.48-.1,1.28,6.18-.68.14-1.05-5.06Z" fill="#68141b"/><path d="M68.35,99.18c-.19-.94.15-1.65,1.09-1.85.95-.2,1.55.32,1.74,1.26l.66,3.19c.19.94-.15,1.66-1.1,1.86-.94.19-1.54-.33-1.73-1.27l-.66-3.19ZM69.7,102.28c.11.56.42.84.92.74s.66-.49.55-1.04l-.67-3.27c-.12-.57-.42-.85-.92-.75-.49.1-.66.49-.55,1.05l.67,3.27Z" fill="#68141b"/><path d="M72.68,93.74c-.29.22-.68.4-1.12.46l-.07-.76c.9-.12,1.17-.63,1.33-1.23l.64-.06.75,8.33-.92.08-.61-6.82Z" fill="#68141b"/><path d="M74.97,94.04c-.11-1.27.44-2.15,1.72-2.26,1.28-.12,1.99.65,2.1,1.92l.38,4.29c.11,1.27-.44,2.16-1.73,2.28-1.27.11-1.98-.66-2.09-1.93l-.38-4.3ZM76.28,98.31c.07.75.43,1.17,1.09,1.11.68-.06.95-.54.88-1.29l-.39-4.4c-.07-.76-.42-1.19-1.1-1.12-.67.06-.95.54-.88,1.3l.4,4.4Z" fill="#68141b"/><path d="M55.68,84.78c.35-1.23,1.18-1.85,2.41-1.5,1.24.35,1.62,1.32,1.28,2.55l-1.18,4.15c-.35,1.23-1.19,1.86-2.43,1.51-1.23-.35-1.61-1.33-1.26-2.56l1.18-4.15ZM55.37,89.23c-.21.72-.02,1.25.62,1.43.65.19,1.08-.17,1.28-.89l1.21-4.25c.21-.74.03-1.26-.62-1.44-.64-.18-1.08.17-1.29.9l-1.2,4.25Z" fill="#68141b"/><path d="M52.96,100.74c-.24.27-.59.53-1,.68l-.22-.73c.86-.3,1.01-.86,1.05-1.48l.62-.19,2.43,8-.88.27-2-6.55Z" fill="#68141b"/><path d="M54.49,100.85c-.37-1.22,0-2.2,1.22-2.57,1.23-.38,2.08.23,2.45,1.45l1.26,4.12c.37,1.22,0,2.21-1.22,2.58-1.22.37-2.07-.24-2.44-1.47l-1.27-4.11ZM56.64,104.76c.22.72.66,1.06,1.3.87.65-.2.82-.72.6-1.44l-1.29-4.23c-.22-.73-.65-1.07-1.3-.88-.64.19-.82.72-.59,1.45l1.28,4.23Z" fill="#68141b"/><path d="M70.43,56.74c-.21.13-.48.23-.78.25v-.52c.6-.03.81-.37.95-.77h.44s.09,5.65.09,5.65h-.62s-.08-4.61-.08-4.61Z" fill="#68141b"/><path d="M73.16,56.69c-.21.13-.48.23-.78.25v-.52c.6-.03.81-.37.95-.77h.44s.09,5.65.09,5.65h-.62s-.08-4.61-.08-4.61Z" fill="#68141b"/><path d="M74.69,57.01c-.01-.86.41-1.43,1.27-1.44.87,0,1.31.54,1.32,1.4l.04,2.92c.01.86-.41,1.44-1.28,1.45-.86,0-1.3-.55-1.32-1.41l-.03-2.92ZM75.36,59.96c.01.51.23.81.68.81.46,0,.67-.32.66-.83l-.05-2.99c-.01-.52-.22-.82-.68-.81-.45,0-.67.32-.66.83l.05,2.99Z" fill="#68141b"/></g><path d="M56.11,75.45s11.47-11.86,8.11-16.83-4.84-4.3-4.93-.34,2.05,9.94-3.18,17.17Z" fill="#ee1d48"/><path d="M85.27,70.32s-.39-7.09,2.85-6.48c3.24.6,4.98.59,2.16,3.72s-5.01,2.76-5.01,2.76Z" fill="#ee1d48"/><path d="M50.89,50.1s4.59-2.2,1.97,3.64-4.26,5.29-4.26,5.29c0,0-1.65-5.29,2.29-8.93Z" fill="#ee1d48"/></svg>